<svg xmlns="http://www.w3.org/2000/svg" xmlns:xlink="http://www.w3.org/1999/xlink" version="1.1" width="256" height="256" viewBox="0 0 256 256" xml:space="preserve">

<defs>
</defs>
<g style="stroke: none; stroke-width: 0; stroke-dasharray: none; stroke-linecap: butt; stroke-linejoin: miter; stroke-miterlimit: 10; fill: none; fill-rule: nonzero; opacity: 1;" transform="translate(1.4065934065934016 1.4065934065934016) scale(2.81 2.81)" >
	<path d="M 45 90 c -12.02 0 -23.32 -4.681 -31.82 -13.181 C 4.681 68.32 0 57.021 0 45 c 0 -12.02 4.681 -23.32 13.18 -31.82 C 21.679 4.681 32.98 0 45 0 c 12.02 0 23.32 4.681 31.819 13.18 l 0 0 C 85.319 21.679 90 32.98 90 45 c 0 12.02 -4.681 23.32 -13.181 31.819 C 68.32 85.319 57.021 90 45 90 z M 45 4 C 34.048 4 23.752 8.265 16.008 16.008 C 8.265 23.752 4 34.049 4 45 s 4.265 21.247 12.008 28.991 C 23.752 81.735 34.049 86 45 86 s 21.247 -4.265 28.991 -12.009 S 86 55.951 86 45 c 0 -10.952 -4.265 -21.248 -12.009 -28.992 l 0 0 C 66.247 8.265 55.951 4 45 4 z" style="stroke: none; stroke-width: 1; stroke-dasharray: none; stroke-linecap: butt; stroke-linejoin: miter; stroke-miterlimit: 10; fill: rgb(0,0,0); fill-rule: nonzero; opacity: 1;" transform=" matrix(1 0 0 1 0 0) " stroke-linecap="round" />
	<path d="M 23.011 25.011 c -0.512 0 -1.024 -0.195 -1.414 -0.586 c -0.781 -0.781 -0.781 -2.047 0 -2.828 C 27.848 15.346 36.16 11.903 45 11.903 c 8.841 0 17.151 3.442 23.402 9.694 c 0.781 0.781 0.781 2.047 0 2.828 c -0.781 0.781 -2.047 0.781 -2.828 0 C 60.079 18.93 52.771 15.903 45 15.903 c -7.772 0 -15.079 3.026 -20.575 8.522 C 24.035 24.816 23.523 25.011 23.011 25.011 z" style="stroke: none; stroke-width: 1; stroke-dasharray: none; stroke-linecap: butt; stroke-linejoin: miter; stroke-miterlimit: 10; fill: rgb(0,0,0); fill-rule: nonzero; opacity: 1;" transform=" matrix(1 0 0 1 0 0) " stroke-linecap="round" />
	<path d="M 45 78.097 c -8.84 0 -17.152 -3.442 -23.403 -9.694 c -0.781 -0.781 -0.781 -2.047 0 -2.828 c 0.78 -0.781 2.048 -0.781 2.828 0 C 29.921 71.07 37.228 74.097 45 74.097 c 7.771 0 15.078 -3.026 20.574 -8.522 c 0.781 -0.781 2.047 -0.781 2.828 0 s 0.781 2.047 0 2.828 C 62.151 74.654 53.841 78.097 45 78.097 z" style="stroke: none; stroke-width: 1; stroke-dasharray: none; stroke-linecap: butt; stroke-linejoin: miter; stroke-miterlimit: 10; fill: rgb(0,0,0); fill-rule: nonzero; opacity: 1;" transform=" matrix(1 0 0 1 0 0) " stroke-linecap="round" />
	<path d="M 15.682 56.428 c -1.104 0 -2 -0.896 -2 -2 V 35.573 c 0 -1.104 0.896 -2 2 -2 h 9.596 c 1.104 0 2 0.896 2 2 s -0.896 2 -2 2 h -7.596 v 16.855 C 17.682 55.532 16.786 56.428 15.682 56.428 z" style="stroke: none; stroke-width: 1; stroke-dasharray: none; stroke-linecap: butt; stroke-linejoin: miter; stroke-miterlimit: 10; fill: rgb(0,0,0); fill-rule: nonzero; opacity: 1;" transform=" matrix(1 0 0 1 0 0) " stroke-linecap="round" />
	<path d="M 20.479 47 h -4.155 c -1.104 0 -2 -0.896 -2 -2 s 0.896 -2 2 -2 h 4.155 c 1.104 0 2 0.896 2 2 S 21.584 47 20.479 47 z" style="stroke: none; stroke-width: 1; stroke-dasharray: none; stroke-linecap: butt; stroke-linejoin: miter; stroke-miterlimit: 10; fill: rgb(0,0,0); fill-rule: nonzero; opacity: 1;" transform=" matrix(1 0 0 1 0 0) " stroke-linecap="round" />
	<path d="M 31.475 56.428 c -1.104 0 -2 -0.896 -2 -2 V 35.573 c 0 -1.104 0.896 -2 2 -2 h 7.423 c 2.301 0 4.172 1.872 4.172 4.172 v 5.083 c 0 2.301 -1.872 4.172 -4.172 4.172 h -5.423 v 7.428 C 33.475 55.532 32.579 56.428 31.475 56.428 z M 33.475 43 h 5.423 c 0.095 0 0.172 -0.077 0.172 -0.172 v -5.083 c 0 -0.095 -0.077 -0.172 -0.172 -0.172 h -5.423 V 43 z" style="stroke: none; stroke-width: 1; stroke-dasharray: none; stroke-linecap: butt; stroke-linejoin: miter; stroke-miterlimit: 10; fill: rgb(0,0,0); fill-rule: nonzero; opacity: 1;" transform=" matrix(1 0 0 1 0 0) " stroke-linecap="round" />
	<path d="M 41.072 56.428 c -0.729 0 -1.431 -0.399 -1.784 -1.093 l -4.798 -9.428 c -0.501 -0.984 -0.109 -2.188 0.875 -2.689 c 0.983 -0.501 2.188 -0.109 2.689 0.875 l 4.798 9.428 c 0.501 0.984 0.109 2.188 -0.875 2.689 C 41.687 56.358 41.377 56.428 41.072 56.428 z" style="stroke: none; stroke-width: 1; stroke-dasharray: none; stroke-linecap: butt; stroke-linejoin: miter; stroke-miterlimit: 10; fill: rgb(0,0,0); fill-rule: nonzero; opacity: 1;" transform=" matrix(1 0 0 1 0 0) " stroke-linecap="round" />
	<path d="M 57.694 56.428 h -9.596 c -1.104 0 -2 -0.896 -2 -2 V 35.573 c 0 -1.104 0.896 -2 2 -2 h 9.596 c 1.104 0 2 0.896 2 2 s -0.896 2 -2 2 h -7.596 v 14.855 h 7.596 c 1.104 0 2 0.896 2 2 S 58.799 56.428 57.694 56.428 z" style="stroke: none; stroke-width: 1; stroke-dasharray: none; stroke-linecap: butt; stroke-linejoin: miter; stroke-miterlimit: 10; fill: rgb(0,0,0); fill-rule: nonzero; opacity: 1;" transform=" matrix(1 0 0 1 0 0) " stroke-linecap="round" />
	<path d="M 52.896 47 h -4.155 c -1.104 0 -2 -0.896 -2 -2 s 0.896 -2 2 -2 h 4.155 c 1.104 0 2 0.896 2 2 S 54.001 47 52.896 47 z" style="stroke: none; stroke-width: 1; stroke-dasharray: none; stroke-linecap: butt; stroke-linejoin: miter; stroke-miterlimit: 10; fill: rgb(0,0,0); fill-rule: nonzero; opacity: 1;" transform=" matrix(1 0 0 1 0 0) " stroke-linecap="round" />
	<path d="M 74.318 56.428 h -9.596 c -1.104 0 -2 -0.896 -2 -2 V 35.573 c 0 -1.104 0.896 -2 2 -2 h 9.596 c 1.104 0 2 0.896 2 2 s -0.896 2 -2 2 h -7.596 v 14.855 h 7.596 c 1.104 0 2 0.896 2 2 S 75.423 56.428 74.318 56.428 z" style="stroke: none; stroke-width: 1; stroke-dasharray: none; stroke-linecap: butt; stroke-linejoin: miter; stroke-miterlimit: 10; fill: rgb(0,0,0); fill-rule: nonzero; opacity: 1;" transform=" matrix(1 0 0 1 0 0) " stroke-linecap="round" />
	<path d="M 69.521 47 h -4.155 c -1.104 0 -2 -0.896 -2 -2 s 0.896 -2 2 -2 h 4.155 c 1.104 0 2 0.896 2 2 S 70.625 47 69.521 47 z" style="stroke: none; stroke-width: 1; stroke-dasharray: none; stroke-linecap: butt; stroke-linejoin: miter; stroke-miterlimit: 10; fill: rgb(0,0,0); fill-rule: nonzero; opacity: 1;" transform=" matrix(1 0 0 1 0 0) " stroke-linecap="round" />
</g>
</svg>